<mxfile host="app.diagrams.net" modified="2022-11-07T22:20:14.676Z" agent="5.0 (Windows NT 10.0; WOW64) AppleWebKit/537.36 (KHTML, like Gecko) Chrome/107.0.0.0 Safari/537.36" etag="c2y_ti1BBRvAtrfyNO5V" version="20.5.2" type="github">
  <diagram id="Usfkaa2NUjdKAS45TD0_" name="Page-1">
    <mxGraphModel dx="1422" dy="849" grid="1" gridSize="10" guides="1" tooltips="1" connect="1" arrows="1" fold="1" page="1" pageScale="1" pageWidth="827" pageHeight="1169" math="0" shadow="0">
      <root>
        <mxCell id="0" />
        <mxCell id="1" parent="0" />
        <mxCell id="dFSWItL5yCYdIvHghrHA-1" value="&lt;ol style=&quot;box-sizing: border-box; padding: 0px; margin: 6px 0px 0px; color: rgb(0, 0, 0); font-family: sans-serif; font-size: 16px; font-style: normal; font-variant-ligatures: normal; font-variant-caps: normal; font-weight: 400; letter-spacing: normal; orphans: 2; text-align: start; text-indent: 0px; text-transform: none; widows: 2; word-spacing: 0px; -webkit-text-stroke-width: 0px; text-decoration-thickness: initial; text-decoration-style: initial; text-decoration-color: initial; list-style-type: decimal;&quot; start=&quot;2&quot; class=&quot;n8H08c BKnRcf&quot;&gt;&lt;li style=&quot;box-sizing: border-box; font-variant-ligatures: none; margin: 0px 0px 0px 15pt; outline: none; position: relative; text-decoration: inherit; color: rgb(33, 33, 33); font-size: 11pt; font-style: inherit; font-weight: 400; font-family: Lato, sans-serif; line-height: 0; padding-top: 0px; padding-bottom: 0px;&quot; class=&quot;TYR86d zfr3Q&quot; dir=&quot;ltr&quot;&gt;&lt;p style=&quot;box-sizing: border-box; font-variant-ligatures: none; margin: 0px; outline: none; position: relative; text-decoration: inherit; color: rgb(33, 33, 33); font-size: 11pt; font-style: inherit; font-weight: 400; font-family: Lato, sans-serif; line-height: 1.6667; padding-top: 0px; padding-bottom: 0px; padding-left: 0px; text-indent: 0px;&quot; class=&quot;CDt4Ke zfr3Q&quot; dir=&quot;ltr&quot;&gt;&lt;span style=&quot;box-sizing: border-box; font-family: Lato;&quot;&gt;&lt;strong style=&quot;font-weight: bold; -webkit-font-smoothing: antialiased; box-sizing: border-box;&quot;&gt;Institución de ARTE&lt;/strong&gt;&lt;/span&gt;&lt;/p&gt;&lt;/li&gt;&lt;/ol&gt;&lt;p style=&quot;box-sizing: border-box; font-variant-ligatures: none; margin: 12px 0px 0px 15pt; outline: none; position: relative; text-decoration-line: inherit; text-decoration-thickness: initial; text-decoration-style: initial; text-decoration-color: initial; color: rgb(33, 33, 33); font-size: 11pt; font-style: normal; font-weight: 400; font-family: Lato, sans-serif; line-height: 1.6667; font-variant-caps: normal; letter-spacing: normal; orphans: 2; text-align: start; text-indent: 0px; text-transform: none; widows: 2; word-spacing: 0px; -webkit-text-stroke-width: 0px; padding-left: 0px;&quot; class=&quot;CDt4Ke zfr3Q&quot; dir=&quot;ltr&quot;&gt;Una institución de arte desea mantener información acerca de cuadros. Para ello, se quiere modelar pintores, cuadros y museos.&lt;/p&gt;&lt;p style=&quot;box-sizing: border-box; font-variant-ligatures: none; margin: 12px 0px 0px 15pt; outline: none; position: relative; text-decoration-line: inherit; text-decoration-thickness: initial; text-decoration-style: initial; text-decoration-color: initial; color: rgb(33, 33, 33); font-size: 11pt; font-style: normal; font-weight: 400; font-family: Lato, sans-serif; line-height: 1.6667; font-variant-caps: normal; letter-spacing: normal; orphans: 2; text-align: start; text-indent: 0px; text-transform: none; widows: 2; word-spacing: 0px; -webkit-text-stroke-width: 0px; padding-left: 0px;&quot; class=&quot;CDt4Ke zfr3Q&quot; dir=&quot;ltr&quot;&gt;Se sabe que un pintor pinta cuadros y los cuadros se exponen en varios museos.&lt;/p&gt;&lt;p style=&quot;box-sizing: border-box; font-variant-ligatures: none; margin: 12px 0px 0px 15pt; outline: none; position: relative; text-decoration-line: inherit; text-decoration-thickness: initial; text-decoration-style: initial; text-decoration-color: initial; color: rgb(33, 33, 33); font-size: 11pt; font-style: normal; font-weight: 400; font-family: Lato, sans-serif; line-height: 1.6667; font-variant-caps: normal; letter-spacing: normal; orphans: 2; text-align: start; text-indent: 0px; text-transform: none; widows: 2; word-spacing: 0px; -webkit-text-stroke-width: 0px; padding-left: 0px;&quot; class=&quot;CDt4Ke zfr3Q&quot; dir=&quot;ltr&quot;&gt;Los pintores poseen un nombre (los nombres de los pintores no se repiten), las corrientes artísticas a las que pertenecieron (puede ser una o varias), su ciudad natal y su fecha de fallecimiento.&lt;/p&gt;&lt;p style=&quot;box-sizing: border-box; font-variant-ligatures: none; margin: 12px 0px 0px 15pt; outline: none; position: relative; text-decoration-line: inherit; text-decoration-thickness: initial; text-decoration-style: initial; text-decoration-color: initial; color: rgb(33, 33, 33); font-size: 11pt; font-style: normal; font-weight: 400; font-family: Lato, sans-serif; line-height: 1.6667; font-variant-caps: normal; letter-spacing: normal; orphans: 2; text-align: start; text-indent: 0px; text-transform: none; widows: 2; word-spacing: 0px; -webkit-text-stroke-width: 0px; padding-left: 0px;&quot; class=&quot;CDt4Ke zfr3Q&quot; dir=&quot;ltr&quot;&gt;En cuanto a los cuadros, podemos saber quién o quiénes fueron los que lo pintaron, y el título que posee la obra.&lt;/p&gt;&lt;p style=&quot;box-sizing: border-box; font-variant-ligatures: none; margin: 12px 0px 0px 15pt; outline: none; position: relative; text-decoration-line: inherit; text-decoration-thickness: initial; text-decoration-style: initial; text-decoration-color: initial; color: rgb(33, 33, 33); font-size: 11pt; font-style: normal; font-weight: 400; font-family: Lato, sans-serif; line-height: 1.6667; font-variant-caps: normal; letter-spacing: normal; orphans: 2; text-align: start; text-indent: 0px; text-transform: none; widows: 2; word-spacing: 0px; -webkit-text-stroke-width: 0px; padding-left: 0px;&quot; class=&quot;CDt4Ke zfr3Q&quot; dir=&quot;ltr&quot;&gt;Por último, los museos poseen un nombre (el nombre del museo no se repite), una dirección y la ciudad donde se encuentra.&lt;/p&gt;&lt;p style=&quot;box-sizing: border-box; font-variant-ligatures: none; margin: 12px 0px 0px 15pt; outline: none; position: relative; text-decoration-line: inherit; text-decoration-thickness: initial; text-decoration-style: initial; text-decoration-color: initial; color: rgb(33, 33, 33); font-size: 11pt; font-style: normal; font-weight: 400; font-family: Lato, sans-serif; line-height: 1.6667; font-variant-caps: normal; letter-spacing: normal; orphans: 2; text-align: start; text-indent: 0px; text-transform: none; widows: 2; word-spacing: 0px; -webkit-text-stroke-width: 0px; padding-left: 0px;&quot; class=&quot;CDt4Ke zfr3Q&quot; dir=&quot;ltr&quot;&gt;Tenga en cuenta que un cuadro podría ser pintado por varios pintores. Se sabe además que un cuadro puede&lt;/p&gt;&lt;p style=&quot;box-sizing: border-box; font-variant-ligatures: none; margin: 12px 0px 0px 15pt; outline: none; position: relative; text-decoration-line: inherit; text-decoration-thickness: initial; text-decoration-style: initial; text-decoration-color: initial; color: rgb(33, 33, 33); font-size: 11pt; font-style: normal; font-weight: 400; font-family: Lato, sans-serif; line-height: 1.6667; font-variant-caps: normal; letter-spacing: normal; orphans: 2; text-align: start; text-indent: 0px; text-transform: none; widows: 2; word-spacing: 0px; -webkit-text-stroke-width: 0px; padding-left: 0px;&quot; class=&quot;CDt4Ke zfr3Q&quot; dir=&quot;ltr&quot;&gt;ser expuesto más de una vez en el mismo museo en diferentes instantes de tiempo.&lt;/p&gt;" style="text;whiteSpace=wrap;html=1;" vertex="1" parent="1">
          <mxGeometry y="10" width="820" height="370" as="geometry" />
        </mxCell>
        <mxCell id="dFSWItL5yCYdIvHghrHA-2" value="Pintores" style="whiteSpace=wrap;html=1;align=center;" vertex="1" parent="1">
          <mxGeometry x="110" y="480" width="100" height="40" as="geometry" />
        </mxCell>
        <mxCell id="dFSWItL5yCYdIvHghrHA-3" value="Museos" style="whiteSpace=wrap;html=1;align=center;" vertex="1" parent="1">
          <mxGeometry x="560" y="760" width="100" height="40" as="geometry" />
        </mxCell>
        <mxCell id="dFSWItL5yCYdIvHghrHA-4" value="Cuadros" style="whiteSpace=wrap;html=1;align=center;" vertex="1" parent="1">
          <mxGeometry x="560" y="480" width="100" height="40" as="geometry" />
        </mxCell>
        <mxCell id="dFSWItL5yCYdIvHghrHA-5" value="pinta" style="shape=rhombus;perimeter=rhombusPerimeter;whiteSpace=wrap;html=1;align=center;" vertex="1" parent="1">
          <mxGeometry x="330" y="470" width="120" height="60" as="geometry" />
        </mxCell>
        <mxCell id="dFSWItL5yCYdIvHghrHA-6" value="se exponen en" style="shape=rhombus;perimeter=rhombusPerimeter;whiteSpace=wrap;html=1;align=center;" vertex="1" parent="1">
          <mxGeometry x="550" y="610" width="120" height="60" as="geometry" />
        </mxCell>
        <mxCell id="dFSWItL5yCYdIvHghrHA-7" value="" style="endArrow=none;html=1;rounded=0;" edge="1" parent="1" source="dFSWItL5yCYdIvHghrHA-2" target="dFSWItL5yCYdIvHghrHA-5">
          <mxGeometry relative="1" as="geometry">
            <mxPoint x="330" y="440" as="sourcePoint" />
            <mxPoint x="490" y="440" as="targetPoint" />
          </mxGeometry>
        </mxCell>
        <mxCell id="dFSWItL5yCYdIvHghrHA-8" value="" style="endArrow=none;html=1;rounded=0;" edge="1" parent="1" source="dFSWItL5yCYdIvHghrHA-5" target="dFSWItL5yCYdIvHghrHA-4">
          <mxGeometry relative="1" as="geometry">
            <mxPoint x="330" y="440" as="sourcePoint" />
            <mxPoint x="490" y="440" as="targetPoint" />
          </mxGeometry>
        </mxCell>
        <mxCell id="dFSWItL5yCYdIvHghrHA-9" value="" style="endArrow=none;html=1;rounded=0;" edge="1" parent="1" source="dFSWItL5yCYdIvHghrHA-4" target="dFSWItL5yCYdIvHghrHA-6">
          <mxGeometry relative="1" as="geometry">
            <mxPoint x="330" y="440" as="sourcePoint" />
            <mxPoint x="490" y="440" as="targetPoint" />
          </mxGeometry>
        </mxCell>
        <mxCell id="dFSWItL5yCYdIvHghrHA-10" value="" style="endArrow=none;html=1;rounded=0;" edge="1" parent="1" source="dFSWItL5yCYdIvHghrHA-6" target="dFSWItL5yCYdIvHghrHA-3">
          <mxGeometry relative="1" as="geometry">
            <mxPoint x="330" y="440" as="sourcePoint" />
            <mxPoint x="490" y="440" as="targetPoint" />
          </mxGeometry>
        </mxCell>
        <mxCell id="dFSWItL5yCYdIvHghrHA-11" value="(1,n)" style="text;html=1;align=center;verticalAlign=middle;resizable=0;points=[];autosize=1;strokeColor=none;fillColor=none;" vertex="1" parent="1">
          <mxGeometry x="610" y="730" width="50" height="30" as="geometry" />
        </mxCell>
        <mxCell id="dFSWItL5yCYdIvHghrHA-12" value="(1,n)" style="text;html=1;align=center;verticalAlign=middle;resizable=0;points=[];autosize=1;strokeColor=none;fillColor=none;" vertex="1" parent="1">
          <mxGeometry x="510" y="470" width="50" height="30" as="geometry" />
        </mxCell>
        <mxCell id="dFSWItL5yCYdIvHghrHA-13" value="Nombre" style="ellipse;whiteSpace=wrap;html=1;align=center;fontStyle=4;" vertex="1" parent="1">
          <mxGeometry x="10" y="530" width="100" height="40" as="geometry" />
        </mxCell>
        <mxCell id="dFSWItL5yCYdIvHghrHA-14" value="corrientes artisticas" style="ellipse;shape=doubleEllipse;margin=3;whiteSpace=wrap;html=1;align=center;" vertex="1" parent="1">
          <mxGeometry x="80" y="570" width="100" height="40" as="geometry" />
        </mxCell>
        <mxCell id="dFSWItL5yCYdIvHghrHA-15" value="" style="endArrow=none;html=1;rounded=0;" edge="1" parent="1" source="dFSWItL5yCYdIvHghrHA-2" target="dFSWItL5yCYdIvHghrHA-13">
          <mxGeometry relative="1" as="geometry">
            <mxPoint x="330" y="430" as="sourcePoint" />
            <mxPoint x="490" y="430" as="targetPoint" />
          </mxGeometry>
        </mxCell>
        <mxCell id="dFSWItL5yCYdIvHghrHA-16" value="" style="endArrow=none;html=1;rounded=0;" edge="1" parent="1" source="dFSWItL5yCYdIvHghrHA-2" target="dFSWItL5yCYdIvHghrHA-14">
          <mxGeometry relative="1" as="geometry">
            <mxPoint x="330" y="430" as="sourcePoint" />
            <mxPoint x="490" y="430" as="targetPoint" />
          </mxGeometry>
        </mxCell>
      </root>
    </mxGraphModel>
  </diagram>
</mxfile>
